<?xml version="1.0" encoding="utf-8"?>
<!-- Generator: Adobe Illustrator 19.0.0, SVG Export Plug-In . SVG Version: 6.00 Build 0)  -->
<svg version="1.1" id="Layer_1" xmlns="http://www.w3.org/2000/svg" xmlns:xlink="http://www.w3.org/1999/xlink" x="0px" y="0px"
	 viewBox="0 0 800 250" style="enable-background:new 0 0 800 250;" xml:space="preserve">
<style type="text/css">
	.st0{fill:#302620;}
</style>
<g id="Layer_2">
</g>
<path id="XMLID_1_" class="st0" d="M800,222.6c0,0,0,27.4,0,27.4H0c0,0,0-26.7,0-27.4c0,0.3,6-0.2,6.4-0.3c2.8-0.6,5.3-1.8,7.1-3.6
	c1.2-1.2,2.3-2.8,4.2-3.3c1.1-0.3,2.3-0.1,3.4,0c2.6,0.4,5.3,0.9,7.9,0.5c3.3-0.5,6-2.3,8.5-4.1c4.6-3.3,9.1-6.7,14.6-8.9
	c3.4-1.4,7,0,10.8,0.5c1.9,0.2,3.8,0.5,5.5,1.2c1.4,0.5,2.5,1.3,3.7,2c2.2,1.4,4.4,2.8,6.6,4.2c0.8,0.5,1.7,1.1,2.8,1.1
	c1.7,0.1,2.9-1.1,3.9-2.1c1.9-2,3.8-4,5.6-6c0.2,0.1,1.5,1.1,1.7,1.2c0.7,0.3,0-0.3,0.4,0.2c2.4,2.6,7.7,2.2,11,4.1
	c0.8,0.5,1.5,1,2.1,1.6c1.3,1.2,2.7,2.3,4.1,3.4c1.3,1,2.7,2.1,4.5,2.5c4.2,0.9,7-3.3,9.2-5.3c1.1-1,2.2-2.1,2.7-3.3
	c1.8-5.1,10.5-8,16.8-7.5c2.4,0.2,4.6,0.7,6.9,1.3c3.3,0.8,6.7,1.6,10,2.4c4.9,1.2,8.2,2.7,11.7,5.7c4.2,3.6,10.1,1.6,15.5,1.8
	c5.6,0.2,10.4,1.3,14.7,4.1c4.4,2.9,9.9,8.9,16.5,6.1c3.1-1.3,4.2-4.3,6.2-6.4c1.8-1.9,3.9-4,7-5c4.3-1.3,8.8,2.2,12.1,0.9
	c0.8-0.3,1.3-0.9,2.1-1.3c2.1-1.1,4.9-0.1,7.1,1c4.7,2.2,9.2,3.6,13.5,6.3c4.5,2.8,9.2,5.6,14.7,7c0.4,0.1,0.9,0.2,1.3,0.1
	c0.4-0.1,0.6-0.5,0.8-0.8c0.8-1.3,1.6-2.7,2.4-4c0.8-1.3,1.8-2.7,3.6-2.9c1.7-0.1,3.2,1,4.8,1.4c5.5,1.3,11.2-4.7,16-6
	c5.5-1.5,11.6,0.2,17.4-0.5c4.2-0.5,8-2.3,12.2-3.3c4.1-1,9.2-1,12,1.5c1.2,1,4.3,1.1,5.9,1.7c2.9,1.1,5.9,1.7,8.4,3.3
	c2.6,1.6,4.4,3.8,7.3,5.1c2.5,1.1,5.7,1.4,8.2,0.4c1.9-0.8,3.1-2.3,4.3-3.8c1-1.3,2-2.5,3-3.8c0.4-0.6,0.9-1.1,1.7-1.4
	c0.8-0.3,1.8-0.2,2.7-0.2c1.7,0.1,3.4-0.1,5-0.6c3.6-1,6.3-3.2,9.5-4.9c8.7-4.5,15.5,0.6,21.6,5.4c2,1.6,3.9,2.1,6.4,1.7
	c2.4-0.4,4.8-1.2,7-2.4c2.1-1.2,4-2.8,6-4.2c5.6-3.6,10.9-4.2,16.9-1.2c2.5,1.2,4.8,2.8,7,4.6c2.5,2.1,4.6,2.1,7.8,2
	c1,0,2-0.1,3-0.4c1.1-0.4,2.1-1.3,3-2.1c3.9-3.7,7.3-8,11.2-11.6c1.3-1.2,3-2.5,5-2.6c1.9-0.1,3.6,0.7,5.1,1.5
	c2.8,1.4,5.6,3.1,8.6,4.4c3.3,1.4,4.7,0.5,8.4,0.6c5.7,0.2,10.8,2.8,15.4,5.5c2.2,1.3,4.7,2.5,7.3,1.2c2.7-1.3,4.7-3.9,6.4-5.9
	c0.2-0.2,0.5-0.5,0.8-0.4c0.1,0,0.2,0.1,0.3,0.1c0.9,0.7,2.4,1.7,3.4,2.2c1.2,1,2.5,1.9,4.2,2.2c2,0.3,3.4-0.6,5.3-0.7
	c1.5-0.1,3.4,0.5,5,0.6c4,0.1,8-0.4,11.9,0.4c3.7,0.8,7.3,2.2,11.2,2.3c5.8,0.1,11.1-2.5,15.3-5.6c2.4-1.7,5.1-3.8,8.4-3.7
	c2.5,0.1,4.6,1.3,6.6,2.4c3.3,1.8,6.7,3.5,10.3,5c1.8,0.7,3.6,1.4,5.6,1.5c9.1,0.2,14.9-2.3,23.2,1.7c6.7,3.2,15.5,3.5,22-0.2
	c0.5-0.3,1-0.6,1.6-0.7c1.5-0.3,2.9,0.6,4,1.4c6.5,4.6,13.3,6.7,21.5,8.6c4.9,1.1,10.1,1.4,15.1,1c4.6-0.4,8.6-2,12.5-4.3
	c3.2-1.9,7.4-6.3,11.1-6.7c2-0.2,3.9,0.9,5.7,1.8c0.2,0.1,0.5,0.2,0.7,0.2c0.3,0,0.5-0.3,0.7-0.6c1.1-1.4,2.2-2.9,3.3-4.3
	c0.9-1.2,2.2-2.6,3.7-2.4c2.9,0.4,7.5,4.7,9.4,6.8c3,3.4,5.7,7.1,9.4,9.8c2.1,1.5,3.4,1.6,5.9,1.7C793.3,222.5,800,222.4,800,222.6z
	"/>
</svg>
