<?xml version="1.0" encoding="utf-8"?>
<!-- Generator: Adobe Illustrator 19.0.0, SVG Export Plug-In . SVG Version: 6.00 Build 0)  -->
<svg version="1.1" id="Layer_1" xmlns="http://www.w3.org/2000/svg" xmlns:xlink="http://www.w3.org/1999/xlink" x="0px" y="0px"
	 viewBox="0 0 800 250" style="enable-background:new 0 0 800 250;" xml:space="preserve">
<style type="text/css">
	.st0{fill:#CDAD9B;}
</style>
<path id="XMLID_4_" class="st0" d="M800,121.9c0,0,0,128.1,0,128.1H0c0,0,0-126.1,0-128.1c0,0.9,6-0.5,6.4-0.8
	c2.8-1.7,5.3,0.7,7.1-4.6c1.2-3.7,2.3-8.4,4.2-9.9c1.1-0.8,2.3-0.4,3.4,0.1c2.6,1.2,5.3,2.7,7.9,1.6c3.3-1.4,6-6.8,8.5-12.2
	c4.6-9.8,9.1-12.1,14.6-18.9c3.4-4.2,7,0.1,10.8,1.4c1.9,0.7,3.8-6.3,5.5-4.3c1.4,1.6,2.5,3.9,3.7,6.1c2.2,4.2,4.4,8.3,6.6,12.5
	c0.8,1.6,1.7,3.2,2.8,3.3c2,0.3,3-3.7,3.4-4.7c0.7-2.3,1.5-4.7,2-7c0.1-0.5,0.2-1,0.4-1.6c0.3-1.1,0.9-2.2,1.5-3.2
	c0.7-1.3,1.5-2.6,3.1-3.2c0.3-0.1,0.5-0.2,0.8-0.1c1.1,0.2,1.7,2.4,2.2,3.1c0.8,1.2,1.8,2.2,3.1,3.1c2.5,1.8,4.9,3.2,6.3,5.7
	c0.8,1.4,1.5,3.1,2.1,4.8c1.3,3.5,2.7,6.9,4.1,10.1c1.3,3.1,2.7,6.2,4.5,7.4c3.2,2.2,5.6-5.1,6.1-6.4c2-5.2,3.9-10.2,6.3-15.3
	c0.3-0.7,0.7-1.4,1.4-1.9c0.5-0.3,1.1-0.5,1.7-0.7c2-0.9,3.2-2.5,4.2-4.1c2.3-3.3,4.5-6.7,6.8-10c2.6-3.9,6.3-0.4,9.1,1.6
	c3.3,2.4,6.7-3,10-0.6c4.9,3.5,8.2,8,11.7,17c4.2,10.9,10.1,4.7,15.5,5.4c5.6,0.6,10.4,3.8,14.7,12.3c4.4,8.7,9.9,20.4,16.5,12
	c3.1-4,4.2-6.5,6.2-13c1.8-5.6,3.9-12.1,7-14.9c4.3-3.9,8.8,6.6,12.1,2.6c0.8-1,1.3-2.8,2.1-4c2.1-3.3,4.9-0.2,7.1,2.9
	c4.7,6.6,9.2,10.9,13.5,18.8c1.7,3.2,3.9,6.1,6.6,8.6c1.1,1,2.4,2,3.6,2.9c1.1,0.8,2.5,2.5,3.6,1.1c0.3-0.4,0.5-0.9,0.7-1.4
	c0.3-0.9,0.7-1.8,1-2.7c0.3-0.9,0.7-1.8,1.3-2.5c0.6-0.8,1.5-1.5,2.3-2.2c1.5-1.4,1.5-5.2,3.7-5.7c1.7-0.4,3.2,3,4.8,4.2
	c5.5,3.8,11.2-14,16-17.9c5.5-4.5,11.6,0.7,17.4-1.4c4.2-1.6,8-7,12.2-10c4.1-3,9.2-3,12,4.6c1.2,3.1,4.3,3.3,5.9,5.1
	c1.4,1.6,3.1,2.9,4.5,4.5c3.3,3.5,3.6,6.8,10.1,7.4c2.8,0.3,5.8-0.5,8.5,0c5.8,1.1,8,6.8,12.9,9.4c1.3,0.7,2.9,1.1,4.3,0.7
	c1-0.3,1.8-1.1,2.5-1.8c1.7-1.5,4-2.2,5.7-3.6c2.2-1.7,3.7-4.5,5.3-6.6c3.4-4.4,6.6-8.9,9.6-13.5c1.7-2.6,3.7-5.5,6.8-7.2
	c5-2.7,4.4,0.8,8.9,1.4c8,1.1,9-4.9,14.3-8.8c0.5-0.4,1.1-0.7,1.7-0.5c0.3,0.1,0.6,0.3,0.9,0.5c2.9,2.3,4.2,6,6.1,9.1
	c1.2,1.9,2.6,3.5,4,5.2c0.4,0.5,0.9,1,1.4,1.3c0.8,0.4,1.8,0.3,2.8,0.3c4.3,0.1,6.5,3.2,8.1,6.7c1,2.1,3.2,9.1,6.6,8.1
	c2.6-0.8,4.2-4.3,5.4-6.3c2-3.3,4-6.7,6-10c1.9-3.3,3.7-6.6,6.1-9.5c0.5-0.6,1.3-1.3,2-1c0.3,0.1,0.6,0.4,0.8,0.7
	c2.8,3.9,6.2,13,12.4,12c1.4-0.2,2.5-0.9,3.8-1.3c3.8-0.9,7.5,1.6,9.9,4.2c2.4,2.5,5,5.5,9,5.7c5.2,0.3,8.6-4,10.9-7.7
	c2.3-3.7,6.1-7.9,11.2-7.2c3,0.4,5.1,2.5,7,4.4c4.2,4.4,8.3,8.7,12.5,13.1c1.9,2,4.2,4.2,7.4,4.4c3.7,0.2,6.7-2.3,8.8-4.8
	c5.4-6.6,6.9-14.3,11.6-20.9c2-2.8,7.3-16.8,12.2-16.5c2.5,0.2,4.6,3.9,6.6,7.2c3.3,5.5,6.7,2.7,10.3,7.1c1.8,2.2,3.6,4.3,5.6,4.4
	c9.1,0.6,14.9-6.9,23.2,5.2c6.7,9.7,15.5,10.6,22-0.5c0.5-0.8,1-1.8,1.6-2.1c1.5-0.9,2.9,1.8,4,4.3c1.3,2.7,3.1,10.4,8.4,7.4
	c1.3-0.7,2.4-1.7,3.8-2.1c1.7-0.5,3.6,0,5.2,0.7c2.4,1.2,4.2,2.9,6,4.7c3.7,3.7,7.4,7.4,11,11.1c1.1,1.1,2.3,2.3,3.9,3
	c7,3.1,11.8-10.6,13.7-14.1c3.2-5.7,6.9-10.8,11-10.3c1.8,0.2,3.7,1.4,5.3-0.5c2.4-2.9,2.6-10.9,4.7-14.8c3.6-6.6,7.4,4.3,9.3,10.6
	c1.9,6.4,3.6,12.9,5.5,19.4c0.9,3.1,1.3,6.4,2.7,9.4c0.7,1.5,1.7,3.1,3.2,4.2c0.5,0.4,1.6,1.2,2.4,1.2c1.2,0,1.5-1.4,2.9-1.3
	C793.3,121.7,800,121.2,800,121.9z"/>
</svg>
