<?xml version="1.0" encoding="utf-8"?>
<!-- Generator: Adobe Illustrator 19.0.0, SVG Export Plug-In . SVG Version: 6.00 Build 0)  -->
<svg version="1.1" id="Layer_1" xmlns="http://www.w3.org/2000/svg" xmlns:xlink="http://www.w3.org/1999/xlink" x="0px" y="0px"
	 viewBox="0 0 800 250" style="enable-background:new 0 0 800 250;" xml:space="preserve">
<style type="text/css">
	.st0{fill:#E6C8B5;}
</style>
<path id="XMLID_5_" class="st0" d="M0,73.7C0,73.7,0,250,0,250h800c0,0,0-173.6,0-176.3c0,1.2-6-0.7-6.4-1.1
	c-2.8-2.4-9.4-17.9-11.3-19.9c-1.1-1.1-2.3-0.5-3.4,0.2c-2.6,1.6-5.3,3.7-7.9,2.1c-3.3-2-6-9.4-8.5-16.7c-4.6-13.4-9.1-16.7-14.6-26
	c-3.4-5.8-7,0.1-10.8,2c-1.9,0.9-3.8-8.7-5.5-5.9c-1.4,2.2-2.5,5.3-3.7,8.4c-2.2,5.7-4.4,11.5-6.6,17.2c-0.8,2.2-1.7,4.4-2.8,4.6
	c-2,0.4-3-5.1-3.4-6.4c-0.7-3.1-1.5-6.4-2-9.6c-0.1-0.7-0.2-1.4-0.4-2.2c-0.3-1.5-0.9-3-1.5-4.4c-0.7-1.7-1.5-3.6-3.1-4.4
	c-0.3-0.1-0.5-0.2-0.8-0.2c-1.1,0.3-1.7,3.3-2.2,4.3c-0.8,1.6-1.8,3-3.1,4.2c-2.5,2.4-4.9,4.4-6.3,7.8c-0.8,1.9-1.5,4.3-2.1,6.7
	c-1.3,4.8-2.7,9.4-4.1,14c-1.3,4.2-2.7,8.5-4.5,10.1c-3.2,3-5.6-7-6.1-8.8c-2-7.2-3.9-14-6.3-21.1c-0.3-0.9-0.7-1.9-1.4-2.6
	c-0.5-0.4-1.1-0.7-1.7-1c-2-1.2-3.2-3.5-4.2-5.6c-2.3-4.6-4.5-9.2-6.8-13.8c-2.6-5.3-6.3-0.6-9.1,2.2c-3.3,3.3-6.7-4.2-10-0.9
	c-4.9,4.9-8.2,11-11.7,23.4c-4.2,14.9-10.1,6.5-15.5,7.4c-5.6,0.9-10.4,5.2-14.7,16.9c-4.4,11.9-9.9,28.1-16.5,16.5
	c-3.1-5.5-4.2-9-6.2-18c-1.8-7.7-3.9-16.6-7-20.5c-4.3-5.3-8.8,9-12.1,3.5c-0.8-1.3-1.3-3.9-2.1-5.5c-2.1-4.5-4.9-0.3-7.1,4
	c-4.7,9.1-9.2,15-13.5,25.9c-0.8,2-6.9,16.6-11.1,14c-1.1-0.6-1.5-1.8-1.8-2.8c-1.4-4.1-3.1-8.1-5.1-12c-0.4-0.7-0.8-1.4-1.5-1.9
	c-4.8-3-6.2,3.9-8.1,5.7c-5.5,5.2-11.2-19.2-16-24.6c-5.5-6.2-11.6,1-17.4-1.9c-5.8-2.9-7.7-8.8-11.4-13
	c-4.8-5.5-9.3-11.2-14.4-16.6c-0.4-0.5-0.9-0.9-1.5-1.2c-1.3-0.6-2.9-0.2-4.3,0.1c-2.3,1.8-3.3,5.8-4.7,8.1
	c-9.8,16.8-16.7,34.8-25.8,51.9c-0.3,0.6-0.7,1.3-1.5,1.5c-1,0.3-2-0.4-2.7-1c-5-4.2-8-10.1-14.4-12.9c-1-0.4-2-0.8-2.8-1.4
	c-0.8-0.6-1.3-1.4-1.7-2.2c-4.8-8.6-6.2-21.4-15.1-28.2c-5-3.7-4.4,1-8.9,1.9c-5.4,1-9.3-2.8-12-5.9c-3.3-3.9-6.7-10.8-12.6-6.1
	c-6.2,4.9-5.6,13.7-7.4,20.6c-0.5,1.9-1.1,3.8-2.1,5.6c-0.7,1.3-1.7,2.4-2.4,3.7c-1.1,1.9-1.6,4-2.1,6.2c-1.2,5.8-1.8,11.9-4.5,17.3
	c-0.2,0.4-0.5,0.9-0.9,1.2c-2,1.1-2.7-5.3-3-6.4c-0.7-2.9-1.4-5.9-1.9-8.9c-1.1-5.8-2-11.7-2.7-17.6c-0.3-2.6-0.1-6.3-1.9-8.4
	c-0.6-0.7-1.5-1.2-2.1-1.8c-1.4-1.3-1.8-3.3-2.2-5.2c-0.7-3.6-1.5-7.2-2.2-10.9c-0.7-3.3-0.9-5.2-4.1-6.8c-3.2-1.5-6.9-0.6-10,1
	c-3,1.5-5.8,2.6-9.1,3.4c-3,0.7-4.6,4.3-6.9,6.2c-2.6,2.1-6,2.7-9,3.9c-1.2,0.5-3.1,1-3.9,2.1c-0.9,1.2-1.3,3.2-2.1,4.5
	c-0.9,1.6-0.9,1.8-2.4,1.2c-2.2-0.8-4.2-3.7-5.3-5.7c-2.3-4.4-3.9-9.1-6.4-13.6c-0.2-0.3-0.3-0.6-0.6-0.7c-1-0.4-2,1-2.3,1.8
	c-1.4,3.3-2.8,6.6-4.5,9.7c-1.2,2.1-3-1.8-4.4-2.1c0-0.5-3.9,2-4.1,2.1c-1.6,0.6-3.1,0.2-4.5,1.1c-4.5,2.7-4.2,11-5.1,15.1
	c-1.6,7.1-3.6,14.2-5.3,21.4c-0.1,0.3-0.2,0.6-0.5,0.6c-0.2,0-0.3-0.1-0.4-0.3c-0.7-0.8-1-1.8-1.4-2.8c-1.6-4.5-3-9.1-4.4-13.7
	c-0.8-2.8-1.9-5.4-3.1-8.1c-0.8-1.9-1.6-3-3.5-4c-2.1-1.1-3.4-1.2-4.7-3.3c-3.5-5.3-6.7-10.7-9.7-16.2c-0.2-0.5-0.5-0.9-0.9-1.3
	c-1.1-0.8-2.9-0.6-4.1,0.1s-1.8,1.8-2.5,2.9c-1.1,2-2.3,3.9-4,5.6c-3.5,3.2-8.1,2.2-10.5,6.4c-1.8,3-3.6,5.9-5.6,6.1
	c-9.1,0.9-14.9-9.5-23.2,7.1c-6.7,13.3-15.5,14.5-22-0.6c-0.5-1.2-1-2.4-1.6-2.9c-1.5-1.3-2.9,2.5-4,5.9c-1.3,3.8-3.1,14.3-8.4,10.2
	c-1.3-1-2.4-2.3-3.8-2.9c-1.7-0.6-3.6,0-5.2,1c-2.4,1.6-4.2,4.1-6,6.5c-3.7,5.1-7.4,10.2-11,15.3c-1.1,1.6-2.3,3.2-3.9,4.1
	c-7,4.2-11.8-14.6-13.7-19.4c-1.7-4.1-3.5-8.8-6.6-12.1c-1.1-1.2-2.2-1.9-3.8-2.1c-2.2-0.3-3.2-1.4-4-3.5c-2.5-6-3.5-12.6-6.4-18.4
	c-2.4-4.9-5.1,0.7-6,3.2c-1.5,4-2.4,8.2-3.3,12.3c-0.6,3-1.3,5.9-1.9,8.9c-0.6,2.8-0.9,5.7-2.2,8.2c-1.4,2.8-4.2,4.8-5.8,7.5
	c-0.9,1.5-1.4,3.2-2,4.9c-1.4,4.6-2.9,9.2-5.7,13.2c-0.7,1.1-1.8,2.5-3.2,2.7C3,73.2,0,72.9,0,73.7z"/>
</svg>
