<svg version="1.1" id="Layer_1" xmlns="http://www.w3.org/2000/svg" xmlns:xlink="http://www.w3.org/1999/xlink" x="0px" y="0px"
	 viewBox="0 0 500 500" style="enable-background:new 0 0 500 500;" xml:space="preserve">
<style type="text/css">
	.st0{fill:#006837;}
	.st1{fill:#FFFFFF;}
	#XMLID_2_{
		animation: spin 70s ease-in-out infinite;
		transform-origin:center;
	}
	@keyframes spin{
		0%{
			transform:rotate(0deg);			
		}
		100%{
			transform:rotate(360deg);			
		}
	}
	@keyframes rotate{
		50%{
			transform:scaleX(-1);
		}
		100%{
			transform:scaleX(1);
		}
	}
	#XMLID_13_{
		animation: rotate 30s ease-in-out infinite;
		transform-origin:40% 60%;
	}
	#XMLID_5_{
		animation: rotate 30s ease-in-out infinite;
		transform-origin:60% 40%;
	}
</style>
<g id="XMLID_2_">
	<g id="XMLID_13_">
	<rect id="XMLID_1_" x="82" y="82" class="st0" width="168" height="168"/>
		<path id="XMLID_14_" class="st1" d="M110,124.6c5.5-1,14.1-1.8,22.9-1.8c12.5,0,20.6,1.9,26.6,6.2c5,3.3,8.1,8.3,8.1,15
			c0,8.2-6.2,15.4-16.4,18.6v0.3c9.2,2,20,8.7,20,21.3c0,7.3-3.3,12.9-8.2,17c-6.8,5.4-17.7,7.9-33.5,7.9c-8.6,0-15.3-0.5-19.4-1
			V124.6z M122.5,159.4h11.4c13.2,0,21-6,21-14.2c0-10-8.6-13.9-21.3-13.9c-5.8,0-9.1,0.4-11.1,0.8V159.4z M122.5,200.1
			c2.4,0.4,6,0.5,10.5,0.5c13,0,24.9-4.2,24.9-16.5c0-11.6-11.4-16.4-25.1-16.4h-10.4V200.1z"/>
		<path id="XMLID_18_" class="st1" d="M187.6,166.4c0-7.2-0.1-13.4-0.6-19h11.1l0.4,12h0.6c3.2-8.2,10.8-13.4,19.3-13.4
			c1.4,0,2.4,0.1,3.6,0.4v10.5c-1.3-0.3-2.6-0.4-4.3-0.4c-8.9,0-15.3,5.9-17,14.2c-0.3,1.5-0.6,3.3-0.6,5.2v32.5h-12.5V166.4z"/>
		<path id="XMLID_27_" class="st1" d="M196.3,110c0.8,0.5,2.5,1.2,4.3,1.2c3.4,0,4.4-2.2,4.4-3.8c0-2.7-2.5-3.9-5-3.9h-1.5v-2h1.5
			c1.9,0,4.3-1,4.3-3.3c0-1.6-1-2.9-3.4-2.9c-1.6,0-3.1,0.7-3.9,1.3l-0.7-1.9c1-0.8,3-1.5,5.1-1.5c3.8,0,5.6,2.3,5.6,4.6
			c0,2-1.2,3.7-3.6,4.6v0.1c2.4,0.5,4.3,2.3,4.3,5c0,3.1-2.4,5.8-7.1,5.8c-2.2,0-4.1-0.7-5.1-1.3L196.3,110z"/>
		<path id="XMLID_29_" class="st1" d="M222.7,95.7h-7.4l-0.8,5c0.5-0.1,0.9-0.1,1.6-0.1c1.5,0,3,0.3,4.2,1c1.5,0.9,2.8,2.5,2.8,5
			c0,3.8-3,6.7-7.3,6.7c-2.1,0-3.9-0.6-4.9-1.2l0.7-2c0.8,0.5,2.4,1.1,4.2,1.1c2.5,0,4.6-1.6,4.6-4.2c0-2.5-1.7-4.3-5.6-4.3
			c-1.1,0-2,0.1-2.7,0.2l1.3-9.4h9.3V95.7z"/>
	</g>
	<g id="XMLID_5_">
	<rect id="XMLID_3_" x="250" y="250" class="st0" width="168" height="168"/>
		<path id="XMLID_6_" class="st1" d="M270.1,292.3c5.5-1,14.1-1.8,22.9-1.8c12.5,0,20.6,1.9,26.6,6.2c5,3.3,8.1,8.3,8.1,15
			c0,8.2-6.2,15.4-16.4,18.6v0.3c9.2,2,20,8.7,20,21.3c0,7.3-3.3,12.9-8.2,17c-6.8,5.4-17.7,7.9-33.5,7.9c-8.6,0-15.3-0.5-19.4-1
			V292.3z M282.7,327.1H294c13.2,0,21-6,21-14.2c0-10-8.6-13.9-21.3-13.9c-5.8,0-9.1,0.4-11.1,0.8V327.1z M282.7,367.8
			c2.4,0.4,6,0.5,10.5,0.5c13,0,24.9-4.2,24.9-16.5c0-11.6-11.4-16.4-25.1-16.4h-10.4V367.8z"/>
		<path id="XMLID_10_" class="st1" d="M386.3,376.1l-1-7.7h-0.4c-3.9,4.8-11.4,9.1-21.3,9.1c-14.1,0-21.3-8.7-21.3-17.5
			c0-14.7,15-22.8,41.9-22.7V336c0-5-1.6-14.1-15.8-14.1c-6.5,0-13.2,1.8-18.1,4.5l-2.9-7.3c5.8-3.3,14.1-5.4,22.9-5.4
			c21.3,0,26.5,12.7,26.5,24.9v22.8c0,5.3,0.3,10.5,1.2,14.6H386.3z M384.5,345c-13.8-0.3-29.5,1.9-29.5,13.7
			c0,7.2,5.5,10.6,12,10.6c9.1,0,14.8-5,16.8-10.2c0.4-1.1,0.7-2.4,0.7-3.5V345z"/>
		<path id="XMLID_21_" class="st1" d="M374.9,262.2h-7.4l-0.8,5c0.5-0.1,0.9-0.1,1.6-0.1c1.5,0,3,0.3,4.2,1c1.5,0.9,2.8,2.5,2.8,5
			c0,3.8-3,6.7-7.3,6.7c-2.1,0-3.9-0.6-4.9-1.2l0.7-2c0.8,0.5,2.4,1.1,4.2,1.1c2.5,0,4.6-1.6,4.6-4.2c0-2.5-1.7-4.3-5.6-4.3
			c-1.1,0-2,0.1-2.7,0.2l1.3-9.4h9.3V262.2z"/>
		<path id="XMLID_23_" class="st1" d="M389.8,261.8c-0.5,0-1.2,0-2,0.1c-4.1,0.7-6.3,3.7-6.8,6.9h0.1c0.9-1.2,2.5-2.3,4.7-2.3
			c3.5,0,5.9,2.5,5.9,6.3c0,3.6-2.4,6.9-6.5,6.9c-4.2,0-6.9-3.2-6.9-8.3c0-3.8,1.4-6.9,3.3-8.8c1.6-1.6,3.8-2.6,6.2-2.9
			c0.8-0.1,1.4-0.1,1.9-0.1V261.8z M389,273.1c0-2.8-1.6-4.5-4-4.5c-1.6,0-3.1,1-3.8,2.4c-0.2,0.3-0.3,0.7-0.3,1.2
			c0.1,3.2,1.5,5.6,4.3,5.6C387.5,277.7,389,275.8,389,273.1z"/>
	</g>	
</g>
</svg>
