<?xml version="1.0" encoding="utf-8"?>
<!-- Generator: Adobe Illustrator 19.0.0, SVG Export Plug-In . SVG Version: 6.00 Build 0)  -->
<svg version="1.1" id="Layer_1" xmlns="http://www.w3.org/2000/svg" xmlns:xlink="http://www.w3.org/1999/xlink" x="0px" y="0px"
	 viewBox="0 0 500 500" style="enable-background:new 0 0 500 500;" xml:space="preserve">
<style type="text/css">
	.st0{fill:#333333;}
	.st1{fill:#FFFFFF;}
	.st2{fill:none;stroke:#333333;stroke-width:4;stroke-linecap:round;stroke-miterlimit:10;}
	.st3{fill:#CCCCCC;stroke:#333333;stroke-width:4;stroke-linecap:round;stroke-miterlimit:10;}
	.st4{fill:none;stroke:#333333;stroke-width:8;stroke-linecap:round;stroke-miterlimit:10;}
		#lightbulb{
		animation: spin 60s ease-in-out reverse infinite;
		transform-origin:center;
	}
	@keyframes spin{
		0%{
			transform:rotate(0deg);
		}
		100%{
			transform:rotate(360deg);
		}
	}
</style>
<g id="lightbulb">
	<circle id="XMLID_1_" class="st0" cx="250" cy="386.1" r="15.2"/>
	<g id="XMLID_2_">
		<image style="overflow:visible;" width="328" height="371" xlink:href="4F5391B1.png"  transform="matrix(1 0 0 1 86 36)">
		</image>
		<g>
			<path class="st1" d="M351.3,200.1c0-58.5-41.4-101.6-101.3-101.6s-101.3,42.3-101.3,101.7S201.2,278,201.2,316s97.6,38,97.6,0
				S351.3,258.6,351.3,200.1z"/>
			<path class="st2" d="M351.3,200.1c0-58.5-41.4-101.6-101.3-101.6s-101.3,42.3-101.3,101.7S201.2,278,201.2,316s97.6,38,97.6,0
				S351.3,258.6,351.3,200.1z"/>
		</g>
	</g>
	<path id="XMLID_5_" class="st3" d="M201,313v48.8c0,0,21.5,23.9,48.5,23.9s48.5-23.9,48.5-23.9V313H201z"/>
	<line id="XMLID_4_" class="st4" x1="197" y1="330.8" x2="303" y2="321.7"/>
	<line id="XMLID_3_" class="st4" x1="197" y1="346.3" x2="303" y2="337.2"/>
	<line id="XMLID_6_" class="st4" x1="197" y1="361.7" x2="303" y2="352.7"/>
</g>
</svg>
