<svg version="1.1" id="Layer_1" xmlns="http://www.w3.org/2000/svg" xmlns:xlink="http://www.w3.org/1999/xlink" x="0px" y="0px"
	 viewBox="0 0 500 500" style="enable-background:new 0 0 500 500;" xml:space="preserve">
<style type="text/css">
	.st0{fill:#FFFFFF;stroke:#333333;stroke-width:4;stroke-miterlimit:10;}
	#XMLID_2_{
		animation: spin 50s ease-in-out infinite;
		transform-origin:center;
	}
	@keyframes spin{
		0%{
			transform:rotate(0deg);
		}
		100%{
			transform:rotate(360deg);
		}
	}
	@keyframes flip{
		50%{
			transform:scaleX(-1);
		}
		100%{
			transform:scaleX(1);
		}
	}
	@keyframes flipy{
		50%{
			transform:scaleY(-1);
		}
		100%{
			transform:scaleY(1);
		}
	}
	#XMLID_5_{
		animation: flipy 60s ease-in-out infinite;
		transform-origin:center;
	}
	#XMLID_3_,#XMLID_7_{
		animation: flip 60s ease-in-out infinite alternate;
		transform-origin:center;
	}
</style>
<g id="XMLID_2_">
	<path id="XMLID_3_" class="st0" d="M78.3,248l101-52c5.1-2.6,11.2,1.1,11.2,6.8v0c0,2.9-1.6,5.6-4.2,6.9l-93.8,47v0.5l93.8,47
		c2.6,1.3,4.2,4,4.2,6.9v0c0,5.7-6.1,9.4-11.2,6.8l-101-52c-2.6-1.3-4.2-3.9-4.2-6.8v-4.2C74.1,251.9,75.8,249.3,78.3,248z"/>
	<path id="XMLID_5_" class="st0" d="M210.8,323.2l64-166.4c1.1-3,4-4.9,7.2-4.9h0.6c5.4,0,9.1,5.4,7.1,10.4l-64.3,166.4
		c-1.1,3-4,4.9-7.1,4.9h-0.4C212.5,333.6,208.8,328.2,210.8,323.2z"/>
	<path id="XMLID_7_" class="st0" d="M421.7,266l-101,51.8c-5.1,2.6-11.2-1.1-11.2-6.8v0c0-2.9,1.6-5.6,4.2-6.9l94.5-47v-0.5
		l-94.5-47c-2.6-1.3-4.2-4-4.2-6.9v0c0-5.7,6.1-9.4,11.2-6.8l101,51.8c2.6,1.3,4.2,3.9,4.2,6.8v4.7
		C425.9,262.1,424.2,264.7,421.7,266z"/>
</g>
</svg>
