<svg version="1.1" id="Layer_1" xmlns="http://www.w3.org/2000/svg" xmlns:xlink="http://www.w3.org/1999/xlink" x="0px" y="0px"
	 viewBox="0 0 500 500" style="enable-background:new 0 0 500 500;" xml:space="preserve">
<style type="text/css">
	.st0{fill:#E8E0D7;stroke:#603813;stroke-width:4;stroke-miterlimit:10;}
	.st1{fill:#C3BCB3;}
	.st2{fill:#C3BCB3;stroke:#603813;stroke-width:4;stroke-miterlimit:10;}
	.st3{fill:#603813;}
	#XMLID_1_{
		animation: spin 70s reverse ease-in-out infinite;
		transform-origin:center;
	}
	@keyframes spin{
		0%{
			transform:rotate(0deg);
		}
		100%{
			transform:rotate(360deg);
		}
	}
</style>
<g id="XMLID_1_">
	<path id="XMLID_5_" class="st0" d="M358.5,342.5c0,5.3-5.7,10.4-15.6,14.7c-19.8,8.6-56.6,14.4-98.7,14.4
		c-42.1,0-78.9-5.8-98.7-14.4c-9.9-4.3-15.6-9.3-15.6-14.7c0-16,51.2-29,114.3-29C307.3,313.4,358.5,326.4,358.5,342.5z"/>
	<path id="XMLID_2_" class="st1" d="M315,342.3c0,2.3-3.5,4.5-9.5,6.4c-12.1,3.8-34.6,6.3-60.4,6.3c-25.7,0-48.2-2.5-60.4-6.3
		c-6.1-1.9-9.5-4.1-9.5-6.4c0-7,31.3-12.7,69.9-12.7S315,335.3,315,342.3z"/>
	<path id="XMLID_3_" class="st0" d="M351.4,300.9c-3.9,0.8-7.9,1.2-12,1.3c-6.5,0.1-11.9-5-12-11.5c-0.1-6.5,5-11.9,11.5-12
		c12.7-0.3,24.5-5.5,33.3-14.7c8.8-9.2,13.5-21.2,13.2-33.9c-0.6-26.2-22.4-47.1-48.6-46.5c-6.5,0.1-11.9-5-12-11.5
		c-0.1-6.5,5-11.9,11.5-12c39.2-0.9,71.9,30.4,72.7,69.6c0.4,19-6.6,37-19.8,50.8C378.9,291,365.7,298.1,351.4,300.9z"/>
	<path id="XMLID_4_" class="st0" d="M245.1,345c76.5,0,138.5-80,138.5-178h-277C106.6,265,168.6,345,245.1,345z"/>
	<path id="XMLID_13_" class="st2" d="M383.6,165.2c0,3.7-6.9,7.2-18.9,10.2c-24,6-68.6,10-119.6,10c-51,0-95.6-4-119.6-10
		c-12-3-18.9-6.5-18.9-10.2c0-11.2,62-20.2,138.5-20.2S383.6,154,383.6,165.2z"/>
	<path id="XMLID_11_" class="st3" d="M364.7,175.4c-24,6-68.6,10-119.6,10c-51,0-95.6-4-119.6-10c15.2-7.6,63-13.1,119.6-13.1
		C301.7,162.3,349.5,167.8,364.7,175.4z"/>
</g>
</svg>
