<svg version="1.1" id="Layer_1" xmlns="http://www.w3.org/2000/svg" xmlns:xlink="http://www.w3.org/1999/xlink" x="0px" y="0px"
	 viewBox="0 0 500 500" style="enable-background:new 0 0 500 500;" xml:space="preserve">
<style type="text/css">
	.st0{fill:#EBDCCA;stroke:#333333;stroke-width:4;stroke-miterlimit:10;}
	.st1{fill:#D9E021;stroke:#333333;stroke-width:4;stroke-miterlimit:10;}
	.st2{fill:#B1337D;stroke:#333333;stroke-width:4;stroke-miterlimit:10;}
	.st3{fill:#29ABE2;stroke:#333333;stroke-width:4;stroke-miterlimit:10;}
	.st4{fill:#39B54A;stroke:#333333;stroke-width:4;stroke-miterlimit:10;}
	.st5{fill:#FF3030;stroke:#333333;stroke-width:4;stroke-miterlimit:10;}
	.st6{fill:#F7931E;stroke:#333333;stroke-width:4;stroke-miterlimit:10;}
	.st7{fill:#604226;stroke:#333333;stroke-width:4;stroke-miterlimit:10;}
	.st8{fill:#FBB03B;stroke:#333333;stroke-width:4;stroke-miterlimit:10;}
	.st9{fill:#CCCCCC;stroke:#333333;stroke-width:4;stroke-miterlimit:10;}
	#XMLID_4_{
		animation: spin 70s ease-in-out infinite;
		transform-origin:center;
	}
	#XMLID_15_{
		animation: spin 60s ease-in-out reverse infinite;
		transform-origin:center;
	}
	@keyframes spin{
		0%{
			transform:rotate(0deg);
		}
		100%{
			transform:rotate(360deg);
		}
	}
</style>
<g id="XMLID_15_">
	<path id="XMLID_9_" class="st0" d="M407.2,199.5c-1-12-2.7-28-8.7-38.7c-3.2-5.6-9.1-10.2-15.6-9.9c-9.6,0.4-17,10.5-23.5,16.6
		c-8.2,7.8-17,14-28.7,14.8c-18.1,1.3-37.1-6-50.5-18c-4.9-4.4-9.1-9.3-12.8-14.8c-4.1-6-5.7-12.8-9.6-18.7c-2.5-3.8-6.2-7-10.7-7.8
		c-4-0.7-8.2,0.5-11.7,2.6c-31.2,18.7-51.7,58.5-57.8,93.2c-13.3,75,40.6,164.6,123.7,159.1c21.1-1.4,41.9-9.6,57.8-23.5
		C398.7,319.6,411.5,249.8,407.2,199.5z M282.5,241.3c-11.7-2.1-19.4-13.2-17.4-24.9c2.1-11.7,13.2-19.4,24.9-17.4
		c11.7,2.1,19.4,13.2,17.4,24.9S294.1,243.4,282.5,241.3z"/>
	<circle id="XMLID_3_" class="st1" cx="210.8" cy="228.6" r="19.3"/>
	<circle id="XMLID_5_" class="st2" cx="229.8" cy="294.6" r="19.3"/>
	<circle id="XMLID_10_" class="st3" cx="337.8" cy="322.3" r="19.3"/>
	<circle id="XMLID_12_" class="st4" cx="366.9" cy="268.5" r="19.3"/>
	<circle id="XMLID_13_" class="st5" cx="372.1" cy="211.8" r="19.3"/>
	<circle id="XMLID_11_" class="st6" cx="281" cy="338" r="19.3"/>
</g>
<g id="XMLID_4_">
	
		<ellipse id="XMLID_1_" transform="matrix(0.7071 0.7071 -0.7071 0.7071 215.0811 -101.8519)" class="st7" cx="230.5" cy="208.7" rx="28" ry="121.3"/>
	<path id="XMLID_6_" class="st8" d="M124.7,342.5c4.8-1.8,10.1-3.3,14.5-6.2c4.7-3,8.6-7.2,11.5-11.9c5.3-8.5,7.6-19.5,3.3-28.6
		c-7.2-15.3-26.8-15.8-39.5-7.5c-2.1,1.4-4,2.9-5.8,4.6c-5.6,5.5-9.6,12.6-12.2,20c-2.9,8.3-4.2,17.1-3,25.8s4.8,17.1,10.8,23.4
		c1-2.8,3.5-6.2,3.9-6.8c1.6-2.3,3.4-4.5,5.4-6.4C117,345.8,120.7,344,124.7,342.5z"/>
	<path id="XMLID_14_" class="st5" d="M124.7,342.5c1.7-0.6,3.2-1.7,4.9-2.3c-1.6-2.5-4.8-3.1-7.5-4.3c-4-1.9-7.1-5.7-8.1-10
		c-0.5-2.3-0.6-4.9-2.3-6.5c-1.7-1.5-4.5-1.7-5.6-3.7c-1.2-2.3,0.8-5.5-0.9-7.5c-0.8-1-2.3-1.2-3.6-0.9c-3.1,0.9-4.1,2.8-5.1,5.6
		c-2.9,8.3-4.2,17.1-3,25.8s4.8,17.1,10.8,23.4c1-2.8,3.5-6.2,3.9-6.8c1.6-2.3,3.4-4.5,5.4-6.4C117,345.8,120.7,344,124.7,342.5z"/>
	
		<rect id="XMLID_2_" x="136.2" y="271.7" transform="matrix(0.7071 0.7071 -0.7071 0.7071 246.9005 -25.0329)" class="st9" width="34.9" height="27.6"/>
</g>
</svg>
