<svg version="1.1" id="Layer_1" xmlns="http://www.w3.org/2000/svg" xmlns:xlink="http://www.w3.org/1999/xlink" x="0px" y="0px"
	 viewBox="0 0 500 500" style="enable-background:new 0 0 500 500;" xml:space="preserve">
<style type="text/css">
	.st0{fill:#B3B3B3;stroke:#4D4D4D;stroke-width:4;stroke-miterlimit:10;}
	.st1{fill:#808080;}
	.st2{fill:#4D4D4D;}
	.st3{fill:#66FFFF;}
	.st4{fill:#CCFFFF;}
	#XMLID_10_{
		animation: spin 60s reverse ease-in-out infinite;
		transform-origin:center;
	}
	@keyframes spin{
		0%{
			transform:rotate(0deg);
		}
		100%{
			transform:rotate(360deg);
		}
	}
</style>
<g id="XMLID_10_">
	<path id="XMLID_4_" class="st0" d="M66,269.2l0,10.3c0,1,1.2,1.8,5.5,2.9l108.7,27.7c9,2.3,25.9,4.2,37.5,4.2h226.3
		c7.2,0,10.2-0.6,10.2-1.9l0-10.3"/>
	<g id="XMLID_1_">
		<path id="XMLID_27_" class="st1" d="M81.7,269.9c-12.7,0-23.1-10.3-23.1-23.1V107.7c0-12.7,10.3-23.1,23.1-23.1H308
			c12.7,0,23.1,10.3,23.1,23.1v139.2c0,12.7-10.3,23.1-23.1,23.1H81.7z"/>
		<path id="XMLID_24_" class="st2" d="M308,86.6c11.6,0,21.1,9.5,21.1,21.1v139.2c0,11.6-9.5,21.1-21.1,21.1H81.7
			c-11.6,0-21.1-9.5-21.1-21.1V107.7c0-11.6,9.5-21.1,21.1-21.1H308 M308,82.6H81.7c-13.8,0-25.1,11.2-25.1,25.1v139.2
			c0,13.8,11.2,25.1,25.1,25.1H308c13.8,0,25.1-11.2,25.1-25.1V107.7C333.1,93.8,321.9,82.6,308,82.6L308,82.6z"/>
	</g>
	<g id="XMLID_5_">
		<path id="XMLID_22_" class="st3" d="M92.7,255.4c-11.4,0-20.6-9.3-20.6-20.6V114.3c0-11.4,9.3-20.6,20.6-20.6H297
			c11.4,0,20.6,9.3,20.6,20.6v120.4c0,11.4-9.3,20.6-20.6,20.6H92.7z"/>
		<path id="XMLID_19_" class="st2" d="M297,95.7c10.2,0,18.6,8.4,18.6,18.6v120.4c0,10.2-8.4,18.6-18.6,18.6H92.7
			c-10.2,0-18.6-8.4-18.6-18.6V114.3c0-10.2,8.4-18.6,18.6-18.6H297 M297,91.7H92.7c-12.5,0-22.6,10.2-22.6,22.6v120.4
			c0,12.5,10.2,22.6,22.6,22.6H297c12.5,0,22.6-10.2,22.6-22.6V114.3C319.7,101.8,309.5,91.7,297,91.7L297,91.7z"/>
	</g>
	<path id="XMLID_3_" class="st0" d="M444.1,304H217.8c-11.6,0-28.5-1.9-37.5-4.2L71.5,272.1c-9-2.3-7-4.2,4.6-4.2h226.3
		c11.6,0,28.5,1.9,37.5,4.2l108.7,27.7C457.7,302.1,455.7,304,444.1,304z"/>
	<polygon id="XMLID_2_" class="st4" points="260.7,253.4 212.8,253.4 143.5,95.7 191.5,95.7 "/>
	<polygon id="XMLID_7_" class="st4" points="290,253.4 272.4,253.4 203.2,95.7 220.7,95.7 "/>
</g>
</svg>
